<svg xmlns="http://www.w3.org/2000/svg" width="63.999" height="63.999" viewBox="0 0 1.478 1.478" shape-rendering="geometricPrecision" text-rendering="geometricPrecision" image-rendering="optimizeQuality" fill-rule="evenodd" clip-rule="evenodd"><defs><style>.fil0{fill:#f48f1d}</style></defs><g id="Слой_x0020_1"><g id="_234709088"><path id="_234704312" class="fil0" d="M.74 0a.74.74 0 11-.001 1.478.74.74 0 010-1.478zm0 .105a.634.634 0 11-.001 1.268.634.634 0 010-1.268z"/><path id="_234710096" class="fil0" d="M.6.265h.086v.149h.07v-.15h.087v.152h.055c.099 0 .16.092.159.167-.002.075-.022.089-.066.123.085.037.119.08.117.162-.002.083-.043.19-.204.202l-.06.001v.142H.756v-.14h-.07v.14H.599v-.139l-.173.002a.695.695 0 00.012-.11h.065c.02 0 .033 0 .035-.02v-.4C.538.52.523.504.494.504H.422L.42.411.6.413V.265zm.085.247L.684.687C.888.697.896.627.896.59.896.553.881.503.686.51zm0 .257L.684.973C.922.986.931.905.931.862S.913.76.685.769z"/></g></g></svg>