<svg xmlns="http://www.w3.org/2000/svg" viewBox="0 0 179.019 179.019"><path d="M138.121 138.357c-13.02 13.008-30.312 20.174-48.714 20.174-37.955 0-68.84-30.867-68.876-68.81l14.046 14.064a2.38 2.38 0 003.359 0 2.39 2.39 0 000-3.359L19.315 81.797.698 100.426a2.369 2.369 0 000 3.359 2.34 2.34 0 001.671.692 2.35 2.35 0 001.677-.692l11.826-11.832c1.235 39.531 33.689 71.328 73.512 71.328 19.673 0 38.164-7.661 52.079-21.57a2.373 2.373 0 000-3.353c-.901-.932-2.411-.932-3.342-.001zm40.199-63.123a2.373 2.373 0 00-3.353 0L163.152 87.06c-1.247-39.531-33.701-71.322-73.518-71.322-19.685 0-38.17 7.661-52.085 21.57a2.362 2.362 0 000 3.353 2.362 2.362 0 003.353 0c13.014-13.008 30.312-20.174 48.714-20.174 37.949 0 68.84 30.861 68.888 68.81l-14.058-14.064a2.38 2.38 0 00-3.359 0 2.39 2.39 0 000 3.359l18.623 18.623 18.617-18.623a2.374 2.374 0 00-.007-3.358z" fill="#f6656a"/></svg>